<svg width="24" height="24" viewBox="0 0 24 24" fill="none" xmlns="http://www.w3.org/2000/svg">
<g clip-path="url(#clip0_8_38)">
<path d="M18.375 3.5625V5.67188L16.9688 7.07812H1.40625L0 5.67188V3.5625C0 2.39527 0.942141 1.40625 2.10938 1.40625H16.2656C17.4329 1.40625 18.375 2.39527 18.375 3.5625Z" fill="#4D5A68"/>
<path d="M18.375 3.5625V5.67188L16.9688 7.07812H9.1875V1.40625H16.2656C17.4329 1.40625 18.375 2.39527 18.375 3.5625Z" fill="#304653"/>
<path d="M18.375 5.67188V21.8438C18.375 23.0109 17.4329 24 16.2656 24H2.10938C0.942141 24 0 23.0109 0 21.8438V5.67188H18.375Z" fill="#FFCA42"/>
<path d="M18.375 5.67188V21.8438C18.375 23.0109 17.4329 24 16.2656 24H9.1875V5.67188H18.375Z" fill="#FFAF3E"/>
<path d="M3.51562 4.26562C3.12698 4.26562 2.8125 3.95114 2.8125 3.5625V0.703125C2.8125 0.314484 3.12698 0 3.51562 0C3.90427 0 4.21875 0.314484 4.21875 0.703125V3.5625C4.21875 3.95114 3.90427 4.26562 3.51562 4.26562Z" fill="#CAD4E4"/>
<path d="M6.375 4.26562C5.98636 4.26562 5.67188 3.95114 5.67188 3.5625V0.703125C5.67188 0.314484 5.98636 0 6.375 0C6.76364 0 7.07812 0.314484 7.07812 0.703125V3.5625C7.07812 3.95114 6.76364 4.26562 6.375 4.26562Z" fill="#CAD4E4"/>
<path d="M9.89062 0.703125V3.5625C9.89062 3.9562 9.5813 4.26562 9.1875 4.26562C8.7937 4.26562 8.48438 3.9562 8.48438 3.5625V0.703125C8.48438 0.309328 8.7937 0 9.1875 0C9.5813 0 9.89062 0.309328 9.89062 0.703125Z" fill="#CAD4E4"/>
<path d="M12.0469 4.26562C11.6582 4.26562 11.3438 3.95114 11.3438 3.5625V0.703125C11.3438 0.314484 11.6582 0 12.0469 0C12.4355 0 12.75 0.314484 12.75 0.703125V3.5625C12.75 3.95114 12.4355 4.26562 12.0469 4.26562Z" fill="#ADB5CC"/>
<path d="M14.8594 4.26562C14.4707 4.26562 14.1562 3.95114 14.1562 3.5625V0.703125C14.1562 0.314484 14.4707 0 14.8594 0C15.248 0 15.5625 0.314484 15.5625 0.703125V3.5625C15.5625 3.95114 15.248 4.26562 14.8594 4.26562Z" fill="#ADB5CC"/>
<path d="M9.89062 19.0312C9.89062 19.425 9.5813 19.7344 9.1875 19.7344H3.51562C3.12183 19.7344 2.8125 19.425 2.8125 19.0312C2.8125 18.6375 3.12183 18.3281 3.51562 18.3281H9.1875C9.5813 18.3281 9.89062 18.6375 9.89062 19.0312Z" fill="#DD864D"/>
<path d="M7.78125 15.5156H3.51562C3.12698 15.5156 2.8125 15.2011 2.8125 14.8125C2.8125 14.4239 3.12698 14.1094 3.51562 14.1094H7.78125C8.16989 14.1094 8.48438 14.4239 8.48438 14.8125C8.48438 15.2011 8.16989 15.5156 7.78125 15.5156Z" fill="#DD864D"/>
<path d="M6.375 11.2969H3.51562C3.12698 11.2969 2.8125 10.9824 2.8125 10.5938C2.8125 10.2051 3.12698 9.89062 3.51562 9.89062H6.375C6.76364 9.89062 7.07812 10.2051 7.07812 10.5938C7.07812 10.9824 6.76364 11.2969 6.375 11.2969Z" fill="#DD864D"/>
<path d="M19.2157 15.1952C19.4532 11.2287 22.2178 8.96378 22.3794 8.7363C22.697 8.40831 22.6209 7.86719 22.2251 7.63863L21.3492 7.13289C21.0126 6.93855 20.8975 6.50898 21.0918 6.17242C21.2862 5.83586 21.7157 5.72073 22.0523 5.91508L22.9282 6.42081C24.116 7.10659 24.3445 8.72636 23.3898 9.71369C23.1623 10.031 20.8285 11.779 20.6195 15.2795C20.5962 15.6672 20.2632 15.9625 19.8754 15.9393C19.4844 15.9147 19.193 15.5802 19.2157 15.1952Z" fill="#304653"/>
<path d="M23.7161 4.43996L22.6614 6.26673L20.8379 6.83771L19.4251 6.02204L19.0078 4.15731L20.0625 2.33054C20.6461 1.31973 21.9332 0.974869 22.944 1.55846C23.9548 2.14206 24.2997 3.42915 23.7161 4.43996Z" fill="#4D5A68"/>
<path d="M20.8379 6.83774L20.1315 6.42992L22.944 1.55853C23.9548 2.14213 24.2997 3.42917 23.7161 4.43999L22.6614 6.26675L20.8379 6.83774Z" fill="#304653"/>
<path d="M16.0567 17.8471L12.2814 15.6674C12.4807 13.6066 13.2271 11.6668 14.5094 10.0364C14.7269 9.77222 18.5072 4.93997 18.6845 4.7175L19.0078 4.15735L22.6614 6.26672L22.345 6.81479C22.3239 6.8513 19.9073 12.8931 19.8192 13.102C19.0484 15.0278 17.7417 16.6441 16.0567 17.8471Z" fill="#E9336D"/>
<path d="M16.0567 17.8471L14.169 16.7572L20.8347 5.21204L22.6614 6.26672L22.345 6.81479C22.3239 6.8513 19.9074 12.8931 19.8193 13.102C19.0484 15.0278 17.7417 16.6441 16.0567 17.8471Z" fill="#B12E65"/>
<path d="M14.9425 15.4176C14.1874 14.9817 13.2786 15.009 12.5438 15.4941L12.2814 15.6674C12.2738 15.7929 12.2419 15.9045 12.2344 16.03L12.0554 19.0119L11.4367 20.0836C11.2399 20.4246 11.353 20.8472 11.694 21.0441C12.0351 21.241 12.4577 21.1277 12.6545 20.7868L13.2733 19.7151L15.7662 18.0691C15.8711 17.9998 15.9517 17.9165 16.0566 17.8471L16.0755 17.5333C16.1283 16.6543 15.6975 15.8536 14.9425 15.4176Z" fill="#CAD4E4"/>
<path d="M14.9425 15.4176L13.1003 18.6083L11.694 21.0441C12.035 21.2409 12.4577 21.1276 12.6545 20.7867L13.2732 19.715L15.7662 18.069C15.8711 17.9998 15.9517 17.9164 16.0566 17.8471L16.0755 17.5332C16.1283 16.6543 15.6975 15.8535 14.9425 15.4176Z" fill="#ADB5CC"/>
<path d="M9.1875 4.26562V0C9.5813 0 9.89062 0.309328 9.89062 0.703125V3.5625C9.89062 3.9562 9.5813 4.26562 9.1875 4.26562Z" fill="#ADB5CC"/>
<path d="M9.89062 19.0312C9.89062 19.425 9.5813 19.7344 9.1875 19.7344V18.3281C9.5813 18.3281 9.89062 18.6375 9.89062 19.0312Z" fill="#D36836"/>
</g>
<defs>
<clipPath id="clip0_8_38">
<rect width="24" height="24" fill="white"/>
</clipPath>
</defs>
</svg>
